<svg width="11828" height="2561" viewBox="0 0 11828 2561" fill="none" xmlns="http://www.w3.org/2000/svg">
<g filter="url(#filter0_i_122_1022)">
<g clip-path="url(#clip0_122_1022)">
<rect y="14.2793" width="2532.44" height="2532.44" rx="479.648" fill="url(#paint0_linear_122_1022)"/>
<g filter="url(#filter1_f_122_1022)">
<circle cx="1970.78" cy="752.39" r="1235.16" fill="#9CFF8F" fill-opacity="0.23"/>
</g>
<path d="M1152.43 629H866.533V1525.06C866.533 1594.8 816.721 1666.27 729.723 1666.27C602.034 1666.27 565.435 1572.13 563.096 1525.06L300 1600.03C307.601 1710.44 404.186 1931.26 729.723 1931.26C1055.26 1931.26 1147.17 1660.46 1152.43 1525.06V629Z" fill="white"/>
<path d="M1278.83 629.19C1289.49 629.248 1300.15 629.376 1310.81 629.575C1376.97 629.036 1443.13 628.922 1509.3 629.232C1562.83 629.291 1612.9 628.524 1666.37 632.656C1812.16 643.922 1950.16 692.857 2056.7 796.087C2174.58 910.298 2228.18 1069.73 2232.12 1231.61C2232.58 1250.24 2233.1 1290.75 2231.6 1308.7C2230.28 1326.05 2228.7 1343.35 2226.85 1360.63C2203.88 1523.99 2141.41 1661 2007.15 1762.8C1922.58 1826.92 1811.1 1868.47 1705.64 1880.05L1684.93 1882.5C1610.76 1887.47 1544.21 1886.28 1470.1 1886.27C1363.19 1885.72 1256.28 1885.81 1149.37 1886.52L1149.41 1458.04C1149.37 1364.15 1148.46 1268.81 1149.64 1175.06C1182.23 1132.48 1415.86 916.925 1424.06 894.952L1422.55 893.423C1412.83 892.434 1403.74 892.336 1394 892.392C1312.53 892.87 1230.97 891.861 1149.51 892.876C1149.7 805.246 1148.61 717.023 1149.58 629.458C1191.79 628.591 1236.42 629.229 1278.83 629.19ZM1426.85 1574.43L1427.03 1618.77L1427.65 1621.09C1430.31 1623.69 1431.15 1623.92 1435.29 1623.88C1571.54 1622.35 1714.93 1642.43 1826.99 1546.12C1900.14 1483.26 1933.25 1398.17 1940.4 1304.92C1947.88 1198.98 1932.23 1087.86 1860.98 1004.55C1795.82 928.373 1712.41 901.061 1616.8 893.671L1599.22 893.253C1578.44 891.675 1552.69 892.4 1531.35 892.462L1426.93 892.657L1426.85 1574.43Z" fill="white"/>
</g>
</g>
<path d="M3584.2 2009.61C3471.75 2009.61 3374.2 1988.61 3291.56 1946.61C3210.27 1903.26 3147.27 1840.94 3102.57 1759.65C3059.21 1678.36 3037.54 1579.46 3037.54 1462.95V1387.76H3366.75V1481.24C3366.75 1546.27 3385.72 1599.11 3423.65 1639.75C3462.94 1679.04 3516.46 1698.69 3584.2 1698.69C3650.58 1698.69 3702.74 1679.04 3740.67 1639.75C3779.96 1599.11 3799.61 1546.27 3799.61 1481.24V737.458H4132.89V1462.95C4132.89 1579.46 4110.53 1678.36 4065.83 1759.65C4022.47 1840.94 3959.47 1903.26 3876.83 1946.61C3795.54 1988.61 3698 2009.61 3584.2 2009.61ZM3210.27 778.102V487.498H4132.89V778.102H3210.27ZM4965.23 2009.61C4867.69 2009.61 4780.98 1994.71 4705.11 1964.9C4629.24 1933.74 4564.89 1891.74 4512.05 1838.91C4460.57 1786.07 4421.28 1725.78 4394.18 1658.04C4367.09 1588.95 4353.54 1516.47 4353.54 1440.6V1393.86C4353.54 1316.63 4367.09 1243.47 4394.18 1174.38C4422.63 1103.93 4463.28 1042.29 4516.12 989.45C4570.31 936.613 4635.34 895.292 4711.21 865.486C4787.08 834.326 4871.75 818.746 4965.23 818.746C5061.42 818.746 5146.77 834.326 5221.29 865.486C5297.16 895.292 5361.51 936.613 5414.35 989.45C5467.18 1042.29 5507.83 1103.93 5536.28 1174.38C5564.73 1243.47 5578.95 1316.63 5578.95 1393.86V1440.6C5578.95 1516.47 5565.41 1588.95 5538.31 1658.04C5511.21 1725.78 5471.25 1786.07 5418.41 1838.91C5366.93 1891.74 5303.25 1933.74 5227.38 1964.9C5151.52 1994.71 5064.13 2009.61 4965.23 2009.61ZM4965.23 1735.27C5028.91 1735.27 5081.74 1721.72 5123.74 1694.62C5165.74 1667.53 5197.58 1629.59 5219.26 1580.82C5242.29 1532.05 5253.8 1477.85 5253.8 1418.24C5253.8 1354.57 5242.29 1299.02 5219.26 1251.6C5196.22 1202.83 5163.03 1164.22 5119.68 1135.77C5077.68 1107.32 5026.2 1093.09 4965.23 1093.09C4905.62 1093.09 4854.14 1107.32 4810.78 1135.77C4767.43 1164.22 4734.24 1202.83 4711.21 1251.6C4689.53 1299.02 4678.69 1354.57 4678.69 1418.24C4678.69 1477.85 4689.53 1532.05 4711.21 1580.82C4732.88 1629.59 4765.4 1667.53 4808.75 1694.62C4852.11 1721.72 4904.26 1735.27 4965.23 1735.27ZM6490.73 2007.58C6399.95 2007.58 6320.02 1988.61 6250.93 1950.68C6181.83 1911.39 6127.64 1855.16 6088.35 1782.01C6049.06 1708.85 6028.06 1619.43 6025.35 1513.76H6063.97V1971H5805.88V487.498H6131.03V1241.44L6053.8 1338.99C6057.87 1226.54 6078.87 1132.38 6116.8 1056.51C6156.09 979.289 6209.61 921.71 6277.35 883.776C6345.09 844.487 6422.31 824.842 6509.02 824.842C6584.88 824.842 6653.3 839.068 6714.27 867.518C6776.59 894.614 6829.43 933.903 6872.78 985.386C6916.13 1035.51 6949.32 1095.12 6972.36 1164.22C6996.74 1233.31 7008.94 1308.5 7008.94 1389.79V1434.5C7008.94 1515.79 6996.74 1590.98 6972.36 1660.07C6949.32 1729.17 6914.78 1790.13 6868.71 1842.97C6824.01 1894.45 6769.81 1935.1 6706.14 1964.9C6642.46 1993.35 6570.66 2007.58 6490.73 2007.58ZM6405.37 1735.27C6460.92 1735.27 6509.02 1721.72 6549.66 1694.62C6591.66 1667.53 6624.17 1629.59 6647.21 1580.82C6670.24 1530.69 6681.75 1474.47 6681.75 1412.15C6681.75 1348.47 6670.24 1292.92 6647.21 1245.51C6624.17 1198.09 6591.66 1161.51 6549.66 1135.77C6509.02 1108.67 6460.92 1095.12 6405.37 1095.12C6356.6 1095.12 6310.54 1106.64 6267.18 1129.67C6223.83 1152.7 6188.61 1185.9 6161.51 1229.25C6135.77 1271.25 6122.9 1322.73 6122.9 1383.7V1458.89C6122.9 1517.14 6136.45 1567.27 6163.54 1609.27C6191.99 1649.91 6227.9 1681.07 6271.25 1702.75C6314.6 1724.43 6359.31 1735.27 6405.37 1735.27Z" fill="white"/>
<path d="M7485.5 1979.13V1668.2H7761.88C7830.97 1668.2 7893.29 1658.04 7948.84 1637.72C8004.39 1616.04 8051.81 1586.24 8091.09 1548.3C8130.38 1509.01 8160.19 1462.27 8180.51 1408.08C8200.83 1352.54 8210.99 1291.57 8210.99 1225.18C8210.99 1156.09 8200.83 1094.45 8180.51 1040.25C8160.19 986.063 8130.38 940 8091.09 902.066C8051.81 864.131 8004.39 835.681 7948.84 816.714C7893.29 796.392 7830.97 786.231 7761.88 786.231H7485.5V475.305H7743.59C7877.71 475.305 7994.9 494.949 8095.16 534.238C8195.41 573.528 8279.41 627.042 8347.15 694.782C8414.89 762.522 8465.02 840.422 8497.53 928.484C8531.4 1015.19 8548.34 1106.64 8548.34 1202.83V1247.54C8548.34 1336.96 8531.4 1425.69 8497.53 1513.76C8465.02 1600.46 8414.89 1679.04 8347.15 1749.49C8279.41 1818.59 8195.41 1874.13 8095.16 1916.13C7994.9 1958.13 7877.71 1979.13 7743.59 1979.13H7485.5ZM7192.86 1979.13V475.305H7526.14V1979.13H7192.86ZM8762.23 1971V857.357H9020.32V1334.92H9014.22C9014.22 1177.77 9047.41 1056.51 9113.8 971.16C9181.54 885.808 9279.08 843.132 9406.43 843.132H9449.11V1123.57H9367.82C9278.4 1123.57 9209.31 1147.96 9160.54 1196.73C9111.76 1244.15 9087.38 1313.25 9087.38 1404.02V1971H8762.23ZM9670.41 1971V857.357H9995.56V1971H9670.41ZM9522.06 1097.16V857.357H9995.56V1097.16H9522.06ZM9796.41 747.619C9735.44 747.619 9690.06 732.039 9660.25 700.878C9631.8 668.363 9617.57 627.719 9617.57 578.947C9617.57 528.819 9631.8 488.175 9660.25 457.015C9690.06 424.5 9735.44 408.242 9796.41 408.242C9857.37 408.242 9902.08 424.5 9930.53 457.015C9960.34 488.175 9975.24 528.819 9975.24 578.947C9975.24 627.719 9960.34 668.363 9930.53 700.878C9902.08 732.039 9857.37 747.619 9796.41 747.619ZM10320.7 1971V847.196C10320.7 718.491 10357.3 622.978 10430.4 560.657C10503.6 498.336 10611.3 467.176 10753.5 467.176H10895.8V711.039H10739.3C10702.7 711.039 10674.3 721.2 10654 741.522C10633.6 761.844 10623.5 790.295 10623.5 826.874V1971H10320.7ZM10188.6 1117.48V879.712H10912.1V1117.48H10188.6ZM11600.1 1985.23C11487.7 1985.23 11396.9 1971.68 11327.8 1944.58C11258.7 1916.13 11207.9 1869.39 11175.4 1804.36C11144.2 1737.98 11128.6 1648.56 11128.6 1536.11V556.593H11431.4V1548.3C11431.4 1601.14 11445 1641.78 11472.1 1670.24C11500.5 1697.33 11540.5 1710.88 11592 1710.88H11756.6V1985.23H11600.1ZM10960 1095.12V857.357H11756.6V1095.12H10960Z" fill="#1DC107"/>
<defs>
<filter id="filter0_i_122_1022" x="0" y="14.2793" width="2532.44" height="2542.38" filterUnits="userSpaceOnUse" color-interpolation-filters="sRGB">
<feFlood flood-opacity="0" result="BackgroundImageFix"/>
<feBlend mode="normal" in="SourceGraphic" in2="BackgroundImageFix" result="shape"/>
<feColorMatrix in="SourceAlpha" type="matrix" values="0 0 0 0 0 0 0 0 0 0 0 0 0 0 0 0 0 0 127 0" result="hardAlpha"/>
<feOffset dy="9.94089"/>
<feGaussianBlur stdDeviation="26.3433"/>
<feComposite in2="hardAlpha" operator="arithmetic" k2="-1" k3="1"/>
<feColorMatrix type="matrix" values="0 0 0 0 1 0 0 0 0 1 0 0 0 0 1 0 0 0 0.25 0"/>
<feBlend mode="normal" in2="shape" result="effect1_innerShadow_122_1022"/>
</filter>
<filter id="filter1_f_122_1022" x="238.581" y="-979.81" width="3464.4" height="3464.4" filterUnits="userSpaceOnUse" color-interpolation-filters="sRGB">
<feFlood flood-opacity="0" result="BackgroundImageFix"/>
<feBlend mode="normal" in="SourceGraphic" in2="BackgroundImageFix" result="shape"/>
<feGaussianBlur stdDeviation="248.522" result="effect1_foregroundBlur_122_1022"/>
</filter>
<linearGradient id="paint0_linear_122_1022" x1="1266.22" y1="14.2793" x2="1266.22" y2="2546.72" gradientUnits="userSpaceOnUse">
<stop stop-color="#1DC107"/>
<stop offset="1" stop-color="#29A419"/>
</linearGradient>
<clipPath id="clip0_122_1022">
<rect y="14.2793" width="2532.44" height="2532.44" rx="479.648" fill="white"/>
</clipPath>
</defs>
</svg>
